<?xml version="1.0" encoding="utf-8"?>
<!-- Generator: Adobe Illustrator 17.0.2, SVG Export Plug-In . SVG Version: 6.00 Build 0)  -->
<!DOCTYPE svg PUBLIC "-//W3C//DTD SVG 1.1//EN" "http://www.w3.org/Graphics/SVG/1.1/DTD/svg11.dtd">
<svg version="1.1" id="Layer_1" xmlns="http://www.w3.org/2000/svg" xmlns:xlink="http://www.w3.org/1999/xlink" x="0px" y="0px"
	 width="612px" height="792px" viewBox="0 0 612 792" enable-background="new 0 0 612 792" xml:space="preserve">
<polygon fill="#FFFFFF" stroke="#000000" stroke-width="0.25" stroke-miterlimit="10" points="8,8 9,8 9,12 10,12 10,9 11,9 11,12 
	12,12 12,8 13,8 13,13 8,13 "/>
<polygon fill="#FFFFFF" stroke="#000000" stroke-width="0.25" stroke-miterlimit="10" points="21,8 21,9 17,9 17,10 20,10 20,11 
	17,11 17,12 21,12 21,13 16,13 16,8 "/>
<polygon fill="#FFFFFF" stroke="#000000" stroke-width="0.25" stroke-miterlimit="10" points="24,8 24,9 25,9 25,12 24,12 24,13 
	27,13 27,12 26,12 26,9 27,9 27,8 "/>
<polygon fill="#FFFFFF" stroke="#000000" stroke-width="0.25" stroke-miterlimit="10" points="32,8 32,9 34,9 34,13 35,13 35,9 
	37,9 37,8 "/>
<polygon fill="#FFFFFF" stroke="#000000" stroke-width="0.25" stroke-miterlimit="10" points="40,8 40,13 41,13 41,9 44,9 44,10 
	41,10 41,11 43,11 44,13 45,13 44,11 45,11 45,8 "/>
</svg>
